<?xml version="1.0" standalone="no"?>
<!DOCTYPE svg PUBLIC "-//W3C//DTD SVG 20010904//EN"
 "http://www.w3.org/TR/2001/REC-SVG-20010904/DTD/svg10.dtd">
<svg version="1.0" xmlns="http://www.w3.org/2000/svg"
 width="100px" height="200px" viewBox="0 0 500 500"
 preserveAspectRatio="xMidYMid meet">

<g transform="translate(0.000000,500.000000) scale(0.100000,-0.100000)"
fill="#000000" stroke="none">
<path d="M1560 3540 c0 -6 35 -57 78 -113 l79 -102 -143 -650 c-78 -357 -145
-662 -148 -677 l-5 -28 454 0 c250 0 455 2 455 5 0 3 -7 17 -16 30 -9 14 -16
39 -17 57 0 38 132 659 143 671 4 5 47 -16 96 -47 49 -30 92 -52 96 -48 3 4 9
27 12 52 l7 45 -86 59 c-48 32 -89 64 -92 72 -2 7 27 160 66 339 39 179 71
330 71 335 0 6 -197 10 -525 10 -356 0 -525 -3 -525 -10z m810 -307 c0 -5 -47
-219 -104 -478 l-103 -470 -141 -3 c-111 -2 -141 0 -137 10 5 16 205 932 205
941 0 4 63 7 140 7 77 0 140 -3 140 -7z"/>
<path d="M2621 3298 c-28 -134 -60 -280 -70 -325 l-19 -83 289 -201 c204 -142
289 -207 289 -220 0 -11 4 -19 10 -19 5 0 75 33 155 74 80 41 145 74 146 73 1
-1 2 -19 3 -41 3 -53 -20 -72 -194 -159 -170 -84 -154 -76 -149 -81 3 -3 47
14 99 38 86 39 145 71 251 134 l36 22 -2 -51 c-1 -28 -6 -54 -11 -57 -54 -40
-145 -94 -211 -126 l-81 -39 -38 24 c-22 13 -46 24 -54 24 -8 0 -25 19 -36 42
-24 47 -34 40 -34 -22 l0 -33 -110 -1 c-60 -1 -110 0 -110 1 1 2 9 39 20 83
10 44 16 82 14 85 -12 12 -329 207 -333 204 -2 -2 -32 -133 -66 -291 -58 -264
-62 -290 -49 -315 30 -58 26 -57 444 -58 l385 -1 -1 40 0 40 30 -14 c17 -7 57
-25 90 -39 87 -40 87 -27 -2 20 l-76 42 -1 46 c-1 26 2 49 6 52 4 2 44 -12 89
-32 45 -19 84 -33 87 -31 2 3 21 80 42 171 35 155 40 169 74 204 41 42 57 78
57 127 0 48 -12 49 -34 4 -26 -54 -38 -49 -21 9 8 26 15 65 15 87 -1 35 -2 37
-12 20 -6 -11 -12 -22 -14 -24 -2 -2 -534 368 -553 385 -4 4 17 126 27 152 3
9 41 12 144 12 l141 0 -7 -35 c-3 -19 -9 -50 -12 -68 l-6 -33 167 -103 c91
-57 168 -101 170 -100 7 8 115 513 115 539 0 18 -11 39 -32 59 l-32 31 -486 0
-486 0 -53 -242z"/>
<path d="M1584 1855 c-4 -9 -2 -21 4 -27 15 -15 44 -1 40 19 -4 23 -36 29 -44
8z"/>
<path d="M2830 1745 c0 -96 3 -115 15 -115 12 0 15 19 15 115 0 96 -3 115 -15
115 -12 0 -15 -19 -15 -115z"/>
<path d="M3070 1745 c0 -96 3 -115 15 -115 12 0 15 19 15 115 0 96 -3 115 -15
115 -12 0 -15 -19 -15 -115z"/>
<path d="M1427 1803 c-4 -3 -7 -44 -7 -90 0 -82 0 -83 25 -83 38 0 92 25 104
48 20 37 14 99 -11 116 -22 16 -99 22 -111 9z m78 -78 c0 -20 -6 -31 -17 -33
-15 -3 -18 4 -18 33 0 29 3 36 18 33 11 -2 17 -13 17 -33z"/>
<path d="M1574 1797 c-3 -8 -4 -47 -2 -88 3 -71 4 -74 28 -74 25 0 25 2 28 88
l3 87 -26 0 c-14 0 -28 -6 -31 -13z"/>
<path d="M1670 1738 c-12 -40 -24 -81 -27 -90 -3 -14 2 -18 26 -18 17 0 31 5
31 11 0 7 16 9 50 4 60 -8 60 -8 27 91 -22 64 -26 69 -55 72 -31 3 -31 2 -52
-70z m60 -28 c0 -5 -5 -10 -11 -10 -5 0 -7 5 -4 10 3 6 8 10 11 10 2 0 4 -4 4
-10z"/>
<path d="M1827 1803 c-4 -3 -7 -44 -7 -90 0 -82 0 -83 25 -83 18 0 25 5 25 20
0 13 7 20 20 20 28 0 70 44 70 72 0 45 -26 68 -79 68 -26 0 -51 -3 -54 -7z
m80 -60 c2 -6 -5 -17 -16 -23 -19 -10 -21 -8 -21 15 0 19 5 26 17 23 9 -2 18
-8 20 -15z"/>
<path d="M2013 1803 l-43 -4 0 -85 0 -84 60 0 c57 0 60 1 60 25 0 22 -4 25
-37 26 -39 1 -38 3 10 13 18 4 27 13 27 26 0 16 -7 20 -37 20 -28 0 -34 3 -23
10 8 5 25 10 38 10 17 0 22 6 22 25 0 18 -5 24 -17 23 -10 -1 -37 -3 -60 -5z"/>
<path d="M2110 1719 l0 -91 53 7 c63 9 67 11 67 36 0 15 -7 19 -35 19 l-35 0
0 60 c0 57 -1 60 -25 60 -25 0 -25 -1 -25 -91z"/>
<path d="M23871788 c-14 -23 -15 -23 -36 -4 -17 16 -23 17 -36 6 -14 -12 -13
-16 11 -41 l26 -28 -21 -34 c-26 -43 -27 -57 -2 -57 14 0 32 23 65 82 24 45
42 86 40 90 -9 15 -32 8 -47 -14z m54 -46 c0 -11 -6 -20 -14 -20 -9 0 -12 7 -9
20 3 11 9 20 14 20 5 0 9 -9 9 -20z"/>

<path d="M3184 1802 c-26 -4 -34 -41 -27 -118 5 -44 8 -51 24 -47 11 3 19 16
21 37 l3 31 21 -39 21 -38 13 31 c15 37 30 40 30 6 0 -18 5 -25 20 -25 18 0
20 7 20 80 0 79 0 80 -25 80 -19 0 -28 -8 -40 -37 -17 -40 -21 -39 -44 10 -12
24 -21 32 -37 29z"/>

<path d="M2663 1793 c-15 -3 -23 -12 -23 -24 0 -15 7 -19 36 -19 l36 0 -36
-44 c-49 -60 -47 -76 7 -76 59 0 87 10 87 29 0 14 -7 17 -30 13 -37 -5 -37 4
0 48 17 19 30 45 30 57 0 21 -4 23 -42 22 -24 -1 -53 -4 -65 -6z"/>

<path d="M2910 1719 l0 -80 53 3 c44 3 52 6 55 24 3 18 -1 20 -33 16 l-35 -4
0 61 c0 54 -2 61 -20 61 -18 0 -20 -7 -20 -81z"/>
</g>
</svg>
